<svg width="115" height="118" viewBox="0 0 115 118" fill="none" xmlns="http://www.w3.org/2000/svg">
<path id="Vector" d="M57.6275 0C25.1609 0 0 24.3485 0 57.2353C0 74.4365 6.88841 89.3016 18.1009 99.57C20.0369 101.357 19.6381 102.392 19.9673 113.424C19.9933 114.197 20.203 114.951 20.5784 115.622C20.9537 116.292 21.4832 116.858 22.1207 117.27C22.7582 117.682 23.4843 117.928 24.2357 117.987C24.9871 118.045 25.7409 117.913 26.4315 117.604C38.6989 112.061 38.8566 111.623 40.9363 112.203C76.4773 122.241 115 98.9012 115 57.2353C115 24.3485 90.0965 0 57.6275 0ZM92.2295 44.0453L75.3041 71.5412C74.665 72.5751 73.8246 73.4624 72.8357 74.1475C71.8468 74.8326 70.7306 75.3007 69.5571 75.5225C68.3837 75.7443 67.1782 75.715 66.0163 75.4364C64.8544 75.1579 63.761 74.636 62.8048 73.9037L49.3387 63.5615C48.7367 63.0982 48.0045 62.8477 47.252 62.8477C46.4995 62.8477 45.7673 63.0982 45.1653 63.5615L26.9949 77.7032C24.5697 79.5898 21.3932 76.6087 23.0278 73.975L39.9532 46.4791C40.5921 45.445 41.4324 44.5574 42.4213 43.872C43.4102 43.1867 44.5265 42.7185 45.7 42.4967C46.8736 42.2749 48.0792 42.3043 49.2412 42.583C50.4031 42.8618 51.4964 43.3839 52.4525 44.1166L65.914 54.4565C66.516 54.9198 67.2482 55.1702 68.0007 55.1702C68.7532 55.1702 69.4854 54.9198 70.0874 54.4565L88.2671 40.329C90.6877 38.4305 93.8641 41.4092 92.2295 44.0453Z" fill="white"/>
</svg>
